<svg id="visual" viewBox="0 0 900 600" width="900" height="600" xmlns="http://www.w3.org/2000/svg" xmlns:xlink="http://www.w3.org/1999/xlink" version="1.1"><g stroke-width="1" stroke-linejoin="bevel"><path d="M460 266L469 268L438 228Z" fill="#0d0d0d" stroke="#0d0d0d"></path><path d="M438 228L442 258L460 266Z" fill="#040404" stroke="#040404"></path><path d="M466 385L502 279L469 268Z" fill="#0d0d0d" stroke="#0d0d0d"></path><path d="M551 203L463 161L438 228Z" fill="#000000" stroke="#000000"></path><path d="M551 203L438 228L469 268Z" fill="#101010" stroke="#101010"></path><path d="M502 279L553 215L469 268Z" fill="#0e0e0e" stroke="#0e0e0e"></path><path d="M553 215L551 203L469 268Z" fill="#020202" stroke="#020202"></path><path d="M463 161L399 167L438 228Z" fill="#111111" stroke="#111111"></path><path d="M438 228L356 267L442 258Z" fill="#101010" stroke="#101010"></path><path d="M587 265L568 206L553 215Z" fill="#0d0d0d" stroke="#0d0d0d"></path><path d="M553 215L568 206L551 203Z" fill="#101010" stroke="#101010"></path><path d="M551 203L522 101L463 161Z" fill="#000000" stroke="#000000"></path><path d="M502 279L587 265L553 215Z" fill="#020202" stroke="#020202"></path><path d="M333 203L356 267L438 228Z" fill="#0b0b0b" stroke="#0b0b0b"></path><path d="M446 395L466 385L403 389Z" fill="#020202" stroke="#020202"></path><path d="M460 266L466 385L469 268Z" fill="#090909" stroke="#090909"></path><path d="M467 90L414 118L463 161Z" fill="#101010" stroke="#101010"></path><path d="M463 161L414 118L399 167Z" fill="#000000" stroke="#000000"></path><path d="M399 167L333 203L438 228Z" fill="#0d0d0d" stroke="#0d0d0d"></path><path d="M623 187L599 178L568 206Z" fill="#0b0b0b" stroke="#0b0b0b"></path><path d="M568 206L599 178L551 203Z" fill="#0d0d0d" stroke="#0d0d0d"></path><path d="M582 105L522 101L551 203Z" fill="#040404" stroke="#040404"></path><path d="M349 147L333 203L399 167Z" fill="#040404" stroke="#040404"></path><path d="M522 101L467 90L463 161Z" fill="#0d0d0d" stroke="#0d0d0d"></path><path d="M370 66L357 144L414 118Z" fill="#000000" stroke="#000000"></path><path d="M414 118L357 144L399 167Z" fill="#111111" stroke="#111111"></path><path d="M505 0L463 86L467 90Z" fill="#000000" stroke="#000000"></path><path d="M467 90L463 86L414 118Z" fill="#050505" stroke="#050505"></path><path d="M333 203L325 266L356 267Z" fill="#090909" stroke="#090909"></path><path d="M466 385L460 266L403 389Z" fill="#040404" stroke="#040404"></path><path d="M291 163L349 147L260 42Z" fill="#020202" stroke="#020202"></path><path d="M357 144L349 147L399 167Z" fill="#0e0e0e" stroke="#0e0e0e"></path><path d="M460 266L442 258L403 389Z" fill="#040404" stroke="#040404"></path><path d="M502 279L580 367L587 265Z" fill="#111111" stroke="#111111"></path><path d="M325 266L325 278L356 267Z" fill="#0d0d0d" stroke="#0d0d0d"></path><path d="M580 367L622 272L587 265Z" fill="#0e0e0e" stroke="#0e0e0e"></path><path d="M587 265L623 187L568 206Z" fill="#111111" stroke="#111111"></path><path d="M622 272L623 187L587 265Z" fill="#040404" stroke="#040404"></path><path d="M599 178L582 105L551 203Z" fill="#101010" stroke="#101010"></path><path d="M403 389L442 258L356 267Z" fill="#0d0d0d" stroke="#0d0d0d"></path><path d="M623 187L582 105L599 178Z" fill="#0d0d0d" stroke="#0d0d0d"></path><path d="M522 101L505 0L467 90Z" fill="#090909" stroke="#090909"></path><path d="M337 344L403 389L356 267Z" fill="#0b0b0b" stroke="#0b0b0b"></path><path d="M582 105L570 94L522 101Z" fill="#0b0b0b" stroke="#0b0b0b"></path><path d="M546 410L580 367L466 385Z" fill="#0d0d0d" stroke="#0d0d0d"></path><path d="M466 385L580 367L502 279Z" fill="#101010" stroke="#101010"></path><path d="M325 278L337 344L356 267Z" fill="#000000" stroke="#000000"></path><path d="M344 394L387 405L403 389Z" fill="#0d0d0d" stroke="#0d0d0d"></path><path d="M403 389L400 438L446 395Z" fill="#0e0e0e" stroke="#0e0e0e"></path><path d="M499 451L466 385L446 395Z" fill="#0e0e0e" stroke="#0e0e0e"></path><path d="M499 451L546 410L466 385Z" fill="#050505" stroke="#050505"></path><path d="M546 410L603 376L580 367Z" fill="#020202" stroke="#020202"></path><path d="M580 367L603 376L622 272Z" fill="#0d0d0d" stroke="#0d0d0d"></path><path d="M349 147L291 163L333 203Z" fill="#020202" stroke="#020202"></path><path d="M333 203L265 232L325 266Z" fill="#000000" stroke="#000000"></path><path d="M325 266L242 284L325 278Z" fill="#020202" stroke="#020202"></path><path d="M325 278L242 284L337 344Z" fill="#0b0b0b" stroke="#0b0b0b"></path><path d="M370 66L349 147L357 144Z" fill="#050505" stroke="#050505"></path><path d="M425 15L370 66L463 86Z" fill="#0b0b0b" stroke="#0b0b0b"></path><path d="M463 86L370 66L414 118Z" fill="#111111" stroke="#111111"></path><path d="M201 342L344 394L337 344Z" fill="#111111" stroke="#111111"></path><path d="M337 344L344 394L403 389Z" fill="#0e0e0e" stroke="#0e0e0e"></path><path d="M291 163L265 232L333 203Z" fill="#020202" stroke="#020202"></path><path d="M622 272L682 206L623 187Z" fill="#0b0b0b" stroke="#0b0b0b"></path><path d="M623 187L696 140L582 105Z" fill="#070707" stroke="#070707"></path><path d="M692 219L682 206L622 272Z" fill="#111111" stroke="#111111"></path><path d="M582 105L583 48L570 94Z" fill="#020202" stroke="#020202"></path><path d="M570 94L583 48L522 101Z" fill="#101010" stroke="#101010"></path><path d="M657 70L583 48L582 105Z" fill="#070707" stroke="#070707"></path><path d="M341 455L400 438L387 405Z" fill="#050505" stroke="#050505"></path><path d="M387 405L400 438L403 389Z" fill="#0d0d0d" stroke="#0d0d0d"></path><path d="M461 479L499 451L446 395Z" fill="#0e0e0e" stroke="#0e0e0e"></path><path d="M622 456L646 417L603 376Z" fill="#070707" stroke="#070707"></path><path d="M727 255L692 219L622 272Z" fill="#000000" stroke="#000000"></path><path d="M682 206L696 140L623 187Z" fill="#050505" stroke="#050505"></path><path d="M505 0L425 15L463 86Z" fill="#0b0b0b" stroke="#0b0b0b"></path><path d="M208 278L242 284L204 226Z" fill="#050505" stroke="#050505"></path><path d="M265 232L242 284L325 266Z" fill="#090909" stroke="#090909"></path><path d="M530 0L505 0L522 101Z" fill="#050505" stroke="#050505"></path><path d="M505 0L427 0L425 15Z" fill="#070707" stroke="#070707"></path><path d="M425 15L359 0L370 66Z" fill="#0d0d0d" stroke="#0d0d0d"></path><path d="M583 48L530 0L522 101Z" fill="#0d0d0d" stroke="#0d0d0d"></path><path d="M766 161L696 140L682 206Z" fill="#0e0e0e" stroke="#0e0e0e"></path><path d="M583 48L586 0L530 0Z" fill="#101010" stroke="#101010"></path><path d="M400 438L461 479L446 395Z" fill="#0b0b0b" stroke="#0b0b0b"></path><path d="M622 456L603 376L546 410Z" fill="#000000" stroke="#000000"></path><path d="M766 161L697 135L696 140Z" fill="#000000" stroke="#000000"></path><path d="M696 140L657 70L582 105Z" fill="#101010" stroke="#101010"></path><path d="M697 135L657 70L696 140Z" fill="#020202" stroke="#020202"></path><path d="M622 456L546 410L601 488Z" fill="#111111" stroke="#111111"></path><path d="M603 376L692 362L622 272Z" fill="#0e0e0e" stroke="#0e0e0e"></path><path d="M646 417L692 362L603 376Z" fill="#070707" stroke="#070707"></path><path d="M692 219L766 161L682 206Z" fill="#111111" stroke="#111111"></path><path d="M706 355L727 255L622 272Z" fill="#020202" stroke="#020202"></path><path d="M344 394L341 455L387 405Z" fill="#0b0b0b" stroke="#0b0b0b"></path><path d="M400 438L392 502L461 479Z" fill="#111111" stroke="#111111"></path><path d="M322 484L341 455L246 487Z" fill="#0b0b0b" stroke="#0b0b0b"></path><path d="M260 42L226 153L291 163Z" fill="#020202" stroke="#020202"></path><path d="M291 163L226 153L265 232Z" fill="#040404" stroke="#040404"></path><path d="M260 42L349 147L370 66Z" fill="#111111" stroke="#111111"></path><path d="M427 0L359 0L425 15Z" fill="#090909" stroke="#090909"></path><path d="M624 0L586 0L583 48Z" fill="#050505" stroke="#050505"></path><path d="M691 406L706 355L692 362Z" fill="#020202" stroke="#020202"></path><path d="M692 362L706 355L622 272Z" fill="#070707" stroke="#070707"></path><path d="M226 153L209 205L265 232Z" fill="#0e0e0e" stroke="#0e0e0e"></path><path d="M204 226L242 284L265 232Z" fill="#020202" stroke="#020202"></path><path d="M219 454L341 455L344 394Z" fill="#040404" stroke="#040404"></path><path d="M226 153L217 151L209 205Z" fill="#0b0b0b" stroke="#0b0b0b"></path><path d="M209 79L217 151L226 153Z" fill="#090909" stroke="#090909"></path><path d="M173 151L204 226L209 205Z" fill="#090909" stroke="#090909"></path><path d="M209 205L204 226L265 232Z" fill="#0d0d0d" stroke="#0d0d0d"></path><path d="M601 488L546 410L499 451Z" fill="#000000" stroke="#000000"></path><path d="M646 417L691 406L692 362Z" fill="#111111" stroke="#111111"></path><path d="M359 0L337 0L370 66Z" fill="#070707" stroke="#070707"></path><path d="M392 502L470 504L461 479Z" fill="#111111" stroke="#111111"></path><path d="M461 479L470 504L499 451Z" fill="#0e0e0e" stroke="#0e0e0e"></path><path d="M657 446L691 406L646 417Z" fill="#0d0d0d" stroke="#0d0d0d"></path><path d="M657 70L624 0L583 48Z" fill="#0e0e0e" stroke="#0e0e0e"></path><path d="M697 54L624 0L657 70Z" fill="#050505" stroke="#050505"></path><path d="M367 502L392 502L400 438Z" fill="#090909" stroke="#090909"></path><path d="M622 456L657 446L646 417Z" fill="#101010" stroke="#101010"></path><path d="M601 488L657 446L622 456Z" fill="#0b0b0b" stroke="#0b0b0b"></path><path d="M470 504L601 488L499 451Z" fill="#111111" stroke="#111111"></path><path d="M706 355L755 268L727 255Z" fill="#090909" stroke="#090909"></path><path d="M727 255L766 161L692 219Z" fill="#0d0d0d" stroke="#0d0d0d"></path><path d="M750 348L755 268L706 355Z" fill="#020202" stroke="#020202"></path><path d="M337 0L260 42L370 66Z" fill="#0b0b0b" stroke="#0b0b0b"></path><path d="M322 484L367 502L341 455Z" fill="#040404" stroke="#040404"></path><path d="M341 455L367 502L400 438Z" fill="#000000" stroke="#000000"></path><path d="M392 502L413 546L470 504Z" fill="#090909" stroke="#090909"></path><path d="M789 107L697 54L697 135Z" fill="#000000" stroke="#000000"></path><path d="M697 135L697 54L657 70Z" fill="#000000" stroke="#000000"></path><path d="M201 342L337 344L242 284Z" fill="#101010" stroke="#101010"></path><path d="M154 310L201 342L208 278Z" fill="#040404" stroke="#040404"></path><path d="M208 278L201 342L242 284Z" fill="#090909" stroke="#090909"></path><path d="M803 421L750 348L691 406Z" fill="#070707" stroke="#070707"></path><path d="M691 406L750 348L706 355Z" fill="#0e0e0e" stroke="#0e0e0e"></path><path d="M817 213L766 161L755 268Z" fill="#070707" stroke="#070707"></path><path d="M755 268L766 161L727 255Z" fill="#070707" stroke="#070707"></path><path d="M260 42L209 79L226 153Z" fill="#040404" stroke="#040404"></path><path d="M217 151L173 151L209 205Z" fill="#000000" stroke="#000000"></path><path d="M750 348L775 298L755 268Z" fill="#070707" stroke="#070707"></path><path d="M188 87L173 151L217 151Z" fill="#070707" stroke="#070707"></path><path d="M204 226L154 310L208 278Z" fill="#101010" stroke="#101010"></path><path d="M371 600L413 546L367 502Z" fill="#0e0e0e" stroke="#0e0e0e"></path><path d="M367 502L413 546L392 502Z" fill="#050505" stroke="#050505"></path><path d="M470 504L558 579L601 488Z" fill="#020202" stroke="#020202"></path><path d="M206 0L188 87L209 79Z" fill="#101010" stroke="#101010"></path><path d="M209 79L188 87L217 151Z" fill="#000000" stroke="#000000"></path><path d="M91 299L154 310L78 214Z" fill="#000000" stroke="#000000"></path><path d="M201 342L219 454L344 394Z" fill="#070707" stroke="#070707"></path><path d="M870 380L795 287L775 298Z" fill="#000000" stroke="#000000"></path><path d="M775 298L795 287L755 268Z" fill="#0b0b0b" stroke="#0b0b0b"></path><path d="M337 0L234 0L260 42Z" fill="#0b0b0b" stroke="#0b0b0b"></path><path d="M260 42L206 0L209 79Z" fill="#101010" stroke="#101010"></path><path d="M146 376L219 454L201 342Z" fill="#101010" stroke="#101010"></path><path d="M322 484L289 540L367 502Z" fill="#020202" stroke="#020202"></path><path d="M657 446L717 467L691 406Z" fill="#040404" stroke="#040404"></path><path d="M750 348L870 380L775 298Z" fill="#111111" stroke="#111111"></path><path d="M639 555L717 467L657 446Z" fill="#0b0b0b" stroke="#0b0b0b"></path><path d="M639 555L657 446L601 488Z" fill="#0d0d0d" stroke="#0d0d0d"></path><path d="M219 454L246 487L341 455Z" fill="#101010" stroke="#101010"></path><path d="M188 87L149 123L173 151Z" fill="#090909" stroke="#090909"></path><path d="M78 214L154 310L204 226Z" fill="#0e0e0e" stroke="#0e0e0e"></path><path d="M99 101L149 123L109 48Z" fill="#090909" stroke="#090909"></path><path d="M818 107L789 107L766 161Z" fill="#050505" stroke="#050505"></path><path d="M766 161L789 107L697 135Z" fill="#101010" stroke="#101010"></path><path d="M697 54L747 0L624 0Z" fill="#0e0e0e" stroke="#0e0e0e"></path><path d="M246 487L268 511L322 484Z" fill="#020202" stroke="#020202"></path><path d="M795 287L817 213L755 268Z" fill="#0b0b0b" stroke="#0b0b0b"></path><path d="M454 600L475 584L413 546Z" fill="#0b0b0b" stroke="#0b0b0b"></path><path d="M413 546L475 584L470 504Z" fill="#111111" stroke="#111111"></path><path d="M92 329L143 362L154 310Z" fill="#111111" stroke="#111111"></path><path d="M154 310L143 362L201 342Z" fill="#070707" stroke="#070707"></path><path d="M219 454L199 464L246 487Z" fill="#050505" stroke="#050505"></path><path d="M234 0L206 0L260 42Z" fill="#101010" stroke="#101010"></path><path d="M143 362L146 376L201 342Z" fill="#090909" stroke="#090909"></path><path d="M475 584L558 579L470 504Z" fill="#050505" stroke="#050505"></path><path d="M301 600L289 540L223 600Z" fill="#0d0d0d" stroke="#0d0d0d"></path><path d="M268 511L289 540L322 484Z" fill="#101010" stroke="#101010"></path><path d="M162 518L268 511L246 487Z" fill="#040404" stroke="#040404"></path><path d="M146 376L199 464L219 454Z" fill="#000000" stroke="#000000"></path><path d="M759 0L747 0L697 54Z" fill="#090909" stroke="#090909"></path><path d="M558 579L639 555L601 488Z" fill="#0b0b0b" stroke="#0b0b0b"></path><path d="M371 600L454 600L413 546Z" fill="#020202" stroke="#020202"></path><path d="M475 584L512 600L558 579Z" fill="#020202" stroke="#020202"></path><path d="M454 600L512 600L475 584Z" fill="#070707" stroke="#070707"></path><path d="M556 600L650 562L639 555Z" fill="#101010" stroke="#101010"></path><path d="M851 151L818 107L766 161Z" fill="#0d0d0d" stroke="#0d0d0d"></path><path d="M789 107L759 0L697 54Z" fill="#111111" stroke="#111111"></path><path d="M818 34L759 0L789 107Z" fill="#0d0d0d" stroke="#0d0d0d"></path><path d="M512 600L541 600L558 579Z" fill="#111111" stroke="#111111"></path><path d="M556 600L639 555L558 579Z" fill="#070707" stroke="#070707"></path><path d="M639 555L650 562L717 467Z" fill="#0b0b0b" stroke="#0b0b0b"></path><path d="M541 600L556 600L558 579Z" fill="#070707" stroke="#070707"></path><path d="M289 540L371 600L367 502Z" fill="#020202" stroke="#020202"></path><path d="M803 451L803 421L717 467Z" fill="#050505" stroke="#050505"></path><path d="M717 467L803 421L691 406Z" fill="#101010" stroke="#101010"></path><path d="M795 287L859 218L817 213Z" fill="#020202" stroke="#020202"></path><path d="M85 181L204 226L173 151Z" fill="#111111" stroke="#111111"></path><path d="M143 362L104 394L146 376Z" fill="#070707" stroke="#070707"></path><path d="M146 376L103 465L199 464Z" fill="#050505" stroke="#050505"></path><path d="M817 213L851 151L766 161Z" fill="#0e0e0e" stroke="#0e0e0e"></path><path d="M900 264L859 218L795 287Z" fill="#0b0b0b" stroke="#0b0b0b"></path><path d="M859 218L851 151L817 213Z" fill="#090909" stroke="#090909"></path><path d="M818 107L818 34L789 107Z" fill="#070707" stroke="#070707"></path><path d="M99 101L85 181L149 123Z" fill="#020202" stroke="#020202"></path><path d="M149 123L85 181L173 151Z" fill="#070707" stroke="#070707"></path><path d="M28 277L92 329L91 299Z" fill="#070707" stroke="#070707"></path><path d="M91 299L92 329L154 310Z" fill="#000000" stroke="#000000"></path><path d="M85 181L78 214L204 226Z" fill="#000000" stroke="#000000"></path><path d="M109 48L149 123L188 87Z" fill="#000000" stroke="#000000"></path><path d="M85 181L75 213L78 214Z" fill="#070707" stroke="#070707"></path><path d="M767 509L803 451L717 467Z" fill="#050505" stroke="#050505"></path><path d="M803 421L870 380L750 348Z" fill="#040404" stroke="#040404"></path><path d="M0 259L75 213L0 136Z" fill="#101010" stroke="#101010"></path><path d="M78 214L28 277L91 299Z" fill="#111111" stroke="#111111"></path><path d="M828 27L818 34L900 71Z" fill="#0e0e0e" stroke="#0e0e0e"></path><path d="M92 329L104 394L143 362Z" fill="#020202" stroke="#020202"></path><path d="M223 600L289 540L268 511Z" fill="#0d0d0d" stroke="#0d0d0d"></path><path d="M698 575L767 509L717 467Z" fill="#111111" stroke="#111111"></path><path d="M162 518L246 487L199 464Z" fill="#070707" stroke="#070707"></path><path d="M289 540L301 600L371 600Z" fill="#050505" stroke="#050505"></path><path d="M843 538L821 444L803 451Z" fill="#0b0b0b" stroke="#0b0b0b"></path><path d="M803 451L821 444L803 421Z" fill="#101010" stroke="#101010"></path><path d="M206 0L109 48L188 87Z" fill="#101010" stroke="#101010"></path><path d="M99 101L68 103L85 181Z" fill="#101010" stroke="#101010"></path><path d="M679 600L698 575L650 562Z" fill="#000000" stroke="#000000"></path><path d="M650 562L698 575L717 467Z" fill="#111111" stroke="#111111"></path><path d="M900 71L818 34L818 107Z" fill="#000000" stroke="#000000"></path><path d="M818 34L828 27L759 0Z" fill="#0e0e0e" stroke="#0e0e0e"></path><path d="M103 465L157 511L199 464Z" fill="#090909" stroke="#090909"></path><path d="M157 511L162 518L199 464Z" fill="#020202" stroke="#020202"></path><path d="M556 600L679 600L650 562Z" fill="#111111" stroke="#111111"></path><path d="M698 575L784 549L767 509Z" fill="#0d0d0d" stroke="#0d0d0d"></path><path d="M821 444L870 380L803 421Z" fill="#000000" stroke="#000000"></path><path d="M109 48L68 103L99 101Z" fill="#020202" stroke="#020202"></path><path d="M900 309L900 264L795 287Z" fill="#050505" stroke="#050505"></path><path d="M859 218L900 169L851 151Z" fill="#070707" stroke="#070707"></path><path d="M851 151L900 71L818 107Z" fill="#000000" stroke="#000000"></path><path d="M900 264L900 169L859 218Z" fill="#090909" stroke="#090909"></path><path d="M206 0L106 0L109 48Z" fill="#111111" stroke="#111111"></path><path d="M109 48L0 33L68 103Z" fill="#0d0d0d" stroke="#0d0d0d"></path><path d="M870 380L900 309L795 287Z" fill="#0d0d0d" stroke="#0d0d0d"></path><path d="M104 394L103 465L146 376Z" fill="#050505" stroke="#050505"></path><path d="M157 511L117 502L162 518Z" fill="#111111" stroke="#111111"></path><path d="M59 445L103 465L104 394Z" fill="#050505" stroke="#050505"></path><path d="M59 445L104 394L31 403Z" fill="#020202" stroke="#020202"></path><path d="M900 169L900 153L851 151Z" fill="#0e0e0e" stroke="#0e0e0e"></path><path d="M900 71L845 0L828 27Z" fill="#0d0d0d" stroke="#0d0d0d"></path><path d="M828 27L845 0L759 0Z" fill="#0b0b0b" stroke="#0b0b0b"></path><path d="M106 0L96 0L109 48Z" fill="#050505" stroke="#050505"></path><path d="M212 600L223 600L268 511Z" fill="#050505" stroke="#050505"></path><path d="M212 600L268 511L162 518Z" fill="#101010" stroke="#101010"></path><path d="M767 509L843 538L803 451Z" fill="#0b0b0b" stroke="#0b0b0b"></path><path d="M900 401L900 398L870 380Z" fill="#070707" stroke="#070707"></path><path d="M759 600L784 549L698 575Z" fill="#0d0d0d" stroke="#0d0d0d"></path><path d="M103 465L117 502L157 511Z" fill="#0e0e0e" stroke="#0e0e0e"></path><path d="M24 266L78 214L75 213Z" fill="#0d0d0d" stroke="#0d0d0d"></path><path d="M24 266L28 277L78 214Z" fill="#040404" stroke="#040404"></path><path d="M103 465L71 500L117 502Z" fill="#0d0d0d" stroke="#0d0d0d"></path><path d="M0 259L24 266L75 213Z" fill="#090909" stroke="#090909"></path><path d="M84 600L212 600L162 518Z" fill="#111111" stroke="#111111"></path><path d="M900 153L900 71L851 151Z" fill="#0d0d0d" stroke="#0d0d0d"></path><path d="M900 401L870 380L821 444Z" fill="#070707" stroke="#070707"></path><path d="M870 380L900 398L900 309Z" fill="#020202" stroke="#020202"></path><path d="M900 502L900 401L821 444Z" fill="#0d0d0d" stroke="#0d0d0d"></path><path d="M31 403L104 394L92 329Z" fill="#090909" stroke="#090909"></path><path d="M117 502L84 600L162 518Z" fill="#111111" stroke="#111111"></path><path d="M31 403L92 329L0 381Z" fill="#111111" stroke="#111111"></path><path d="M679 600L759 600L698 575Z" fill="#040404" stroke="#040404"></path><path d="M784 549L843 538L767 509Z" fill="#050505" stroke="#050505"></path><path d="M0 317L92 329L28 277Z" fill="#111111" stroke="#111111"></path><path d="M0 136L75 213L85 181Z" fill="#020202" stroke="#020202"></path><path d="M24 266L0 293L28 277Z" fill="#040404" stroke="#040404"></path><path d="M0 136L85 181L68 103Z" fill="#0d0d0d" stroke="#0d0d0d"></path><path d="M0 259L0 293L24 266Z" fill="#0e0e0e" stroke="#0e0e0e"></path><path d="M0 293L0 317L28 277Z" fill="#000000" stroke="#000000"></path><path d="M820 600L843 538L784 549Z" fill="#020202" stroke="#020202"></path><path d="M0 435L71 500L59 445Z" fill="#040404" stroke="#040404"></path><path d="M59 445L71 500L103 465Z" fill="#070707" stroke="#070707"></path><path d="M0 120L0 136L68 103Z" fill="#0b0b0b" stroke="#0b0b0b"></path><path d="M0 33L0 120L68 103Z" fill="#070707" stroke="#070707"></path><path d="M900 71L900 0L845 0Z" fill="#000000" stroke="#000000"></path><path d="M759 600L801 600L784 549Z" fill="#070707" stroke="#070707"></path><path d="M0 317L0 381L92 329Z" fill="#0e0e0e" stroke="#0e0e0e"></path><path d="M31 403L0 435L59 445Z" fill="#0e0e0e" stroke="#0e0e0e"></path><path d="M900 507L900 502L843 538Z" fill="#090909" stroke="#090909"></path><path d="M843 538L900 502L821 444Z" fill="#101010" stroke="#101010"></path><path d="M801 600L820 600L784 549Z" fill="#040404" stroke="#040404"></path><path d="M900 600L900 507L843 538Z" fill="#0d0d0d" stroke="#0d0d0d"></path><path d="M96 0L0 33L109 48Z" fill="#070707" stroke="#070707"></path><path d="M0 381L0 435L31 403Z" fill="#0d0d0d" stroke="#0d0d0d"></path><path d="M96 0L0 0L0 33Z" fill="#101010" stroke="#101010"></path><path d="M58 600L84 600L71 500Z" fill="#070707" stroke="#070707"></path><path d="M71 500L84 600L117 502Z" fill="#090909" stroke="#090909"></path><path d="M0 566L58 600L71 500Z" fill="#000000" stroke="#000000"></path><path d="M820 600L900 600L843 538Z" fill="#0e0e0e" stroke="#0e0e0e"></path><path d="M0 435L0 566L71 500Z" fill="#0d0d0d" stroke="#0d0d0d"></path><path d="M0 566L0 600L58 600Z" fill="#090909" stroke="#090909"></path></g></svg>